Coordinates
version=1
nRows=13
nColumns=40
inDegrees=yes

Units are S.I. units (second, meters, Newtons, ...)
If the header above contains a line with 'inDegrees', this indicates whether rotational values are in degrees (yes) or radians (no).

endheader
time	pelvis_tilt	pelvis_list	pelvis_rotation	pelvis_tx	pelvis_ty	pelvis_tz	hip_flexion_r	hip_adduction_r	hip_rotation_r	knee_angle_r	knee_angle_r_beta	ankle_angle_r	subtalar_angle_r	mtp_angle_r	hip_flexion_l	hip_adduction_l	hip_rotation_l	knee_angle_l	knee_angle_l_beta	ankle_angle_l	subtalar_angle_l	mtp_angle_l	lumbar_extension	lumbar_bending	lumbar_rotation	arm_flex_r	arm_add_r	arm_rot_r	elbow_flex_r	pro_sup_r	wrist_flex_r	wrist_dev_r	arm_flex_l	arm_add_l	arm_rot_l	elbow_flex_l	pro_sup_l	wrist_flex_l	wrist_dev_l
      2.55000000	      2.67147302	      3.49424918	     -1.29542235	     -0.38072147	      0.86126282	     -0.79751101	     31.05254549	     -2.80971813	    -11.26686069	     61.04506147	      1.06543731	     17.53099869	      0.00000000	      0.00000000	     43.83708394	     -4.20518658	     -6.08222321	     23.08051890	      0.40283105	    -19.97711436	      0.00000000	      0.00000000	    -20.75555659	     -2.95969962	     -2.34852338	     89.86822880	    -10.79132637	     39.43994349	     52.25990442	     85.28476408	      0.00000000	      0.00000000	     89.83437579	     -6.12846503	     35.32663307	     47.19230975	     80.59112307	      0.00000000	      0.00000000
      2.55500000	      2.60269397	      3.47587614	     -1.18951208	     -0.38112867	      0.86017010	     -0.79774807	     31.28804155	     -2.87884954	    -11.38076877	     61.33017639	      1.07041351	     17.61926360	      0.00000000	      0.00000000	     43.98896077	     -4.14543188	     -5.95820340	     23.07043007	      0.40265496	    -19.88030251	      0.00000000	      0.00000000	    -20.75446761	     -2.91464324	     -2.41769462	     89.86748284	    -10.80937020	     39.02997634	     52.38452687	     86.97106521	      0.00000000	      0.00000000	     89.83931335	     -6.03854659	     35.16700988	     47.21744937	     83.37325928	      0.00000000	      0.00000000
      2.56000000	      2.57360882	      3.51585704	     -1.15254698	     -0.38147569	      0.85916278	     -0.79784888	     31.46484499	     -2.89162394	    -11.26455272	     61.56899823	      1.07458174	     17.78099415	      0.00000000	      0.00000000	     44.10216980	     -4.08665679	     -5.96031432	     23.07624776	      0.40275650	    -19.89994399	      0.00000000	      0.00000000	    -20.77785675	     -2.90424459	     -2.41384309	     89.86879551	    -10.78443425	     38.92192591	     52.37116195	     86.88003154	      0.00000000	      0.00000000	     89.84192081	     -6.05585522	     35.07346180	     47.29018407	     83.88640099	      0.00000000	      0.00000000
      2.56500000	      2.57020277	      3.53194303	     -1.12326939	     -0.38183151	      0.85817865	     -0.79800306	     31.62730115	     -2.91002786	    -11.19972242	     61.83687869	      1.07925713	     17.92761461	      0.00000000	      0.00000000	     44.18800795	     -4.05776231	     -6.02003642	     23.09321935	      0.40305271	    -19.87872255	      0.00000000	      0.00000000	    -20.81224884	     -2.88560061	     -2.45675553	     89.87015280	    -10.68100493	     38.77125115	     52.25139933	     86.94184609	      0.00000000	      0.00000000	     89.84545315	     -6.04467201	     34.95004625	     47.31373923	     83.58842637	      0.00000000	      0.00000000
      2.57000000	      2.58934613	      3.56747595	     -1.12161596	     -0.38214093	      0.85731329	     -0.79808514	     31.75054705	     -2.91805255	    -11.09895477	     62.06033056	      1.08315710	     18.07184232	      0.00000000	      0.00000000	     44.25333519	     -4.04456787	     -6.15861502	     23.13786850	      0.40383199	    -19.92570957	      0.00000000	      0.00000000	    -20.88093829	     -2.90800718	     -2.51395065	     89.87103226	    -10.55278253	     38.56509806	     52.20948478	     86.99113082	      0.00000000	      0.00000000	     89.84809549	     -6.07201022	     34.91425887	     47.34834540	     82.28738485	      0.00000000	      0.00000000
      2.57500000	      2.48565724	      3.47699590	     -1.03743051	     -0.38255354	      0.85610795	     -0.79819825	     32.00354598	     -2.83586777	    -11.12014873	     62.28595960	      1.08709507	     18.17781990	      0.00000000	      0.00000000	     44.52172470	     -4.08062119	     -6.06574985	     23.25748828	      0.40591975	    -19.86469903	      0.00000000	      0.00000000	    -20.81745005	     -2.77304524	     -2.53406644	     89.87341051	    -10.54609333	     38.47342610	     52.23254026	     86.86959699	      0.00000000	      0.00000000	     89.85040790	     -6.01082996	     34.70292571	     47.28325034	     83.88796382	      0.00000000	      0.00000000
      2.58000000	      2.46723940	      3.48272734	     -1.08299036	     -0.38292940	      0.85515439	     -0.79816480	     32.18805028	     -2.74069900	    -10.88509970	     62.50461026	      1.09091125	     18.26572793	      0.00000000	      0.00000000	     44.67569057	     -4.14863931	     -6.21966699	     23.43002095	      0.40893101	    -19.77771781	      0.00000000	      0.00000000	    -20.81702608	     -2.77250907	     -2.56264640	     89.87690835	    -10.32679991	     38.59242317	     51.98603550	     84.82940284	      0.00000000	      0.00000000	     89.85323623	     -5.95094403	     34.46143412	     47.05785247	     81.09519470	      0.00000000	      0.00000000
      2.58500000	      2.41105962	      3.56405713	     -1.00237693	     -0.38337320	      0.85414227	     -0.79839092	     32.40786671	     -2.88265120	    -10.92615123	     62.78681009	      1.09583656	     18.45632508	      0.00000000	      0.00000000	     44.74181582	     -4.01215454	     -6.23339992	     23.23478407	      0.40552348	    -20.01615668	      0.00000000	      0.00000000	    -20.84678117	     -2.83351436	     -2.58817954	     89.87560573	    -10.44629970	     38.21139941	     52.15078318	     86.87506188	      0.00000000	      0.00000000	     89.85641571	     -5.95154242	     34.43844595	     47.34255979	     83.87591654	      0.00000000	      0.00000000
      2.59000000	      2.43850582	      3.61389089	     -0.97833015	     -0.38365989	      0.85328885	     -0.79851520	     32.52613173	     -2.90615730	    -10.81795770	     63.05225918	      1.10046952	     18.60002673	      0.00000000	      0.00000000	     44.74876243	     -3.93621413	     -6.16555828	     23.17919865	      0.40455333	    -19.97106820	      0.00000000	      0.00000000	    -20.93228628	     -2.86764871	     -2.65920853	     89.87666082	    -10.37780809	     38.07704253	     52.17885574	     86.53970572	      0.00000000	      0.00000000	     89.85896515	     -5.97801088	     34.46479153	     47.47799970	     82.60162119	      0.00000000	      0.00000000
      2.59500000	      2.34421867	      3.56928017	     -0.93601911	     -0.38406563	      0.85213025	     -0.79859738	     32.78607297	     -2.84256523	    -10.76356212	     63.29015098	      1.10462152	     18.68370059	      0.00000000	      0.00000000	     44.98141070	     -3.95896161	     -6.15822638	     23.26326392	      0.40602055	    -19.96219884	      0.00000000	      0.00000000	    -20.87824883	     -2.78890091	     -2.67900962	     89.87829657	    -10.34152786	     37.98060326	     52.20708065	     86.58406785	      0.00000000	      0.00000000	     89.86218367	     -6.00421839	     34.48621676	     47.48891781	     81.89440759	      0.00000000	      0.00000000
      2.60000000	      2.33838217	      3.51283775	     -0.90680710	     -0.38450197	      0.85120589	     -0.79857139	     32.92150396	     -2.74079473	    -10.71143670	     63.47471770	      1.10784282	     18.84180118	      0.00000000	      0.00000000	     45.10655207	     -4.00808972	     -6.19841572	     23.32948169	      0.40717627	    -20.01667154	      0.00000000	      0.00000000	    -20.92417321	     -2.71163563	     -2.75929999	     89.87918464	    -10.11854014	     37.70551287	     52.00305375	     86.97960272	      0.00000000	      0.00000000	     89.86323399	     -6.00545954	     34.05281177	     47.48396072	     82.96414211	      0.00000000	      0.00000000
      2.60500000	      2.39905755	      3.58046987	     -0.90533802	     -0.38478407	      0.85043094	     -0.79868975	     32.98898451	     -2.80233029	    -10.62859327	     63.70316436	      1.11182996	     18.98085371	      0.00000000	      0.00000000	     45.09670337	     -3.93879918	     -6.25830357	     23.31428751	      0.40691108	    -20.09199151	      0.00000000	      0.00000000	    -21.03904895	     -2.78040722	     -2.75369211	     89.88041738	    -10.13311326	     37.56756146	     51.97097618	     86.86165871	      0.00000000	      0.00000000	     89.86554268	     -5.96639554	     33.98798959	     47.52775515	     83.89545914	      0.00000000	      0.00000000
      2.61000000	      2.24380262	      3.56923060	     -0.86093367	     -0.38533524	      0.84916576	     -0.79877204	     33.34629052	     -2.75689633	    -10.53990937	     63.97539562	      1.11658129	     19.11722427	      0.00000000	      0.00000000	     45.38011882	     -3.93924808	     -6.29535107	     23.35892793	      0.40769020	    -20.10063631	      0.00000000	      0.00000000	    -20.93674552	     -2.74645989	     -2.80085662	     89.88210972	    -10.04729555	     37.40790022	     51.95478551	     86.83401183	      0.00000000	      0.00000000	     89.86792568	     -5.89637597	     33.74017398	     47.47304499	     83.87135050	      0.00000000	      0.00000000
